<svg width="1728" height="126" viewBox="0 0 1728 126" fill="none" xmlns="http://www.w3.org/2000/svg">
<path d="M-165 126C-33.6804 -46.492 38.4411 -37.4471 165 126H-165Z" fill="#2B4C9D"/>
<path d="M165 126C296.32 -46.492 368.441 -37.4471 495 126H165Z" fill="#2B4C9D"/>
<path d="M330 126C461.32 -46.492 533.441 -37.4471 660 126H330Z" fill="#2B4C9D"/>
<path d="M495 126C626.32 -46.492 698.441 -37.4471 825 126H495Z" fill="#2B4C9D"/>
<path d="M660 126C791.32 -46.492 863.441 -37.4471 990 126H660Z" fill="#2B4C9D"/>
<path d="M825 126C956.32 -46.492 1028.44 -37.4471 1155 126H825Z" fill="#2B4C9D"/>
<path d="M990 126C1121.32 -46.492 1193.44 -37.4471 1320 126H990Z" fill="#2B4C9D"/>
<path d="M1155 126C1286.32 -46.492 1358.44 -37.4471 1485 126H1155Z" fill="#2B4C9D"/>
<path d="M1320 126C1451.32 -46.492 1523.44 -37.4471 1650 126H1320Z" fill="#2B4C9D"/>
<path d="M1485 126C1616.32 -46.492 1688.44 -37.4471 1815 126H1485Z" fill="#2B4C9D"/>
<path d="M0 126C131.32 -46.492 203.441 -37.4471 330 126H0Z" fill="#2B4C9D"/>
</svg>
